REM DIRINDEX 1\6,1\2\7,1\2\8,1\2\9,1\3\10,1\3\11,1\4\12,1\4\13,1\4\14,1\5\15,1\5\16,1\5\17
REM DIRNAME folder01,folder02,folder03,folder04,folder05,folder06,folder07,folder08,folder09,folder10,folder11,folder12,folder13,folder14,folder15,folder16,folder17
TITLE ""
FILE "3Q_j_1101-1116.mp3" MP3
  TRACK 01 AUDIO
    TITLE "6:cjc041_0602"
    INDEX 01 00:00:00
  TRACK 02 AUDIO
    TITLE "0:"
    INDEX 01 00:06:31
  TRACK 03 AUDIO
    TITLE "12:cjc041_0603"
    INDEX 01 00:07:07
  TRACK 04 AUDIO
    TITLE "0:"
    INDEX 01 00:08:50
  TRACK 05 AUDIO
    TITLE "13:cjc041_0604"
    INDEX 01 00:09:32
  TRACK 06 AUDIO
    TITLE "0:"
    INDEX 01 00:12:60
  TRACK 07 AUDIO
    TITLE "14:cjc041_0605"
    INDEX 01 00:13:39
  TRACK 08 AUDIO
    TITLE "0:"
    INDEX 01 00:16:71
  TRACK 09 AUDIO
    TITLE "12:cjc041_0606"
    INDEX 01 00:17:45
  TRACK 10 AUDIO
    TITLE "0:"
    INDEX 01 00:19:22
  TRACK 11 AUDIO
    TITLE "13:cjc041_0607"
    INDEX 01 00:20:02
  TRACK 12 AUDIO
    TITLE "0:"
    INDEX 01 00:22:19
  TRACK 13 AUDIO
    TITLE "14:cjc041_0608"
    INDEX 01 00:22:72
  TRACK 14 AUDIO
    TITLE "0:"
    INDEX 01 00:25:70
  TRACK 15 AUDIO
    TITLE "12:cjc041_0609"
    INDEX 01 00:26:50
  TRACK 16 AUDIO
    TITLE "0:"
    INDEX 01 00:28:23
  TRACK 17 AUDIO
    TITLE "13:cjc041_0610"
    INDEX 01 00:28:74
  TRACK 18 AUDIO
    TITLE "0:"
    INDEX 01 00:32:25
  TRACK 19 AUDIO
    TITLE "14:cjc041_0611"
    INDEX 01 00:33:07
  TRACK 20 AUDIO
    TITLE "0:"
    INDEX 01 00:37:01
  TRACK 21 AUDIO
    TITLE "12:cjc041_0612"
    INDEX 01 00:37:67
  TRACK 22 AUDIO
    TITLE "0:"
    INDEX 01 00:39:21
  TRACK 23 AUDIO
    TITLE "13:cjc041_0613"
    INDEX 01 00:39:74
  TRACK 24 AUDIO
    TITLE "0:"
    INDEX 01 00:41:57
  TRACK 25 AUDIO
    TITLE "14:cjc041_0614"
    INDEX 01 00:42:33
  TRACK 26 AUDIO
    TITLE "0:"
    INDEX 01 00:45:55
  TRACK 27 AUDIO
    TITLE "12:cjc041_0615"
    INDEX 01 00:46:35
  TRACK 28 AUDIO
    TITLE "0:"
    INDEX 01 00:47:68
  TRACK 29 AUDIO
    TITLE "13:cjc041_0616"
    INDEX 01 00:48:49
  TRACK 30 AUDIO
    TITLE "0:"
    INDEX 01 00:50:07
  TRACK 31 AUDIO
    TITLE "14:cjc041_0617"
    INDEX 01 00:50:56
  TRACK 32 AUDIO
    TITLE "0:"
    INDEX 01 00:53:51
  TRACK 33 AUDIO
    TITLE "12:cjc041_0618"
    INDEX 01 00:54:30
  TRACK 34 AUDIO
    TITLE "0:"
    INDEX 01 00:55:53
  TRACK 35 AUDIO
    TITLE "13:cjc041_0619"
    INDEX 01 00:56:35
  TRACK 36 AUDIO
    TITLE "0:"
    INDEX 01 00:57:68
  TRACK 37 AUDIO
    TITLE "14:cjc041_0620"
    INDEX 01 00:58:44
  TRACK 38 AUDIO
    TITLE "0:"
    INDEX 01 01:01:46
  TRACK 39 AUDIO
    TITLE "12:cjc041_0621"
    INDEX 01 01:02:22
  TRACK 40 AUDIO
    TITLE "0:"
    INDEX 01 01:03:65
  TRACK 41 AUDIO
    TITLE "13:cjc041_0622"
    INDEX 01 01:04:39
  TRACK 42 AUDIO
    TITLE "0:"
    INDEX 01 01:06:43
  TRACK 43 AUDIO
    TITLE "14:cjc041_0623"
    INDEX 01 01:07:15
  TRACK 44 AUDIO
    TITLE "0:"
    INDEX 01 01:10:73
  TRACK 45 AUDIO
    TITLE "12:cjc041_0624"
    INDEX 01 01:11:56
  TRACK 46 AUDIO
    TITLE "0:"
    INDEX 01 01:13:18
  TRACK 47 AUDIO
    TITLE "13:cjc041_0625"
    INDEX 01 01:13:71
  TRACK 48 AUDIO
    TITLE "0:"
    INDEX 01 01:16:05
  TRACK 49 AUDIO
    TITLE "14:cjc041_0626"
    INDEX 01 01:16:61
  TRACK 50 AUDIO
    TITLE "0:"
    INDEX 01 01:20:16
  TRACK 51 AUDIO
    TITLE "12:cjc041_0627"
    INDEX 01 01:20:69
  TRACK 52 AUDIO
    TITLE "0:"
    INDEX 01 01:22:31
  TRACK 53 AUDIO
    TITLE "13:cjc041_0628"
    INDEX 01 01:23:09
  TRACK 54 AUDIO
    TITLE "0:"
    INDEX 01 01:24:47
  TRACK 55 AUDIO
    TITLE "14:cjc041_0629"
    INDEX 01 01:25:29
  TRACK 56 AUDIO
    TITLE "0:"
    INDEX 01 01:29:52
  TRACK 57 AUDIO
    TITLE "12:cjc041_0630"
    INDEX 01 01:30:28
  TRACK 58 AUDIO
    TITLE "0:"
    INDEX 01 01:32:13
  TRACK 59 AUDIO
    TITLE "13:cjc041_0631"
    INDEX 01 01:32:68
  TRACK 60 AUDIO
    TITLE "0:"
    INDEX 01 01:34:48
  TRACK 61 AUDIO
    TITLE "14:cjc041_0632"
    INDEX 01 01:35:33
  TRACK 62 AUDIO
    TITLE "0:"
    INDEX 01 01:38:22
  TRACK 63 AUDIO
    TITLE "12:cjc041_0633"
    INDEX 01 01:39:02
  TRACK 64 AUDIO
    TITLE "0:"
    INDEX 01 01:41:03
  TRACK 65 AUDIO
    TITLE "13:cjc041_0634"
    INDEX 01 01:41:54
  TRACK 66 AUDIO
    TITLE "0:"
    INDEX 01 01:44:40
  TRACK 67 AUDIO
    TITLE "14:cjc041_0635"
    INDEX 01 01:45:14
  TRACK 68 AUDIO
    TITLE "0:"
    INDEX 01 01:48:26
  TRACK 69 AUDIO
    TITLE "12:cjc041_0636"
    INDEX 01 01:49:06
  TRACK 70 AUDIO
    TITLE "0:"
    INDEX 01 01:51:34
  TRACK 71 AUDIO
    TITLE "13:cjc041_0637"
    INDEX 01 01:52:18
  TRACK 72 AUDIO
    TITLE "0:"
    INDEX 01 01:54:50
  TRACK 73 AUDIO
    TITLE "14:cjc041_0638"
    INDEX 01 01:55:30
  TRACK 74 AUDIO
    TITLE "0:"
    INDEX 01 02:00:35
  TRACK 75 AUDIO
    TITLE "12:cjc041_0639"
    INDEX 01 02:01:11
  TRACK 76 AUDIO
    TITLE "0:"
    INDEX 01 02:03:20
  TRACK 77 AUDIO
    TITLE "13:cjc041_0640"
    INDEX 01 02:04:02
  TRACK 78 AUDIO
    TITLE "0:"
    INDEX 01 02:05:74
  TRACK 79 AUDIO
    TITLE "14:cjc041_0641"
    INDEX 01 02:06:52
  TRACK 80 AUDIO
    TITLE "0:"
    INDEX 01 02:10:55
  TRACK 81 AUDIO
    TITLE "12:cjc041_0642"
    INDEX 01 02:11:39
  TRACK 82 AUDIO
    TITLE "0:"
    INDEX 01 02:13:24
  TRACK 83 AUDIO
    TITLE "13:cjc041_0643"
    INDEX 01 02:13:73
  TRACK 84 AUDIO
    TITLE "0:"
    INDEX 01 02:16:11
  TRACK 85 AUDIO
    TITLE "14:cjc041_0644"
    INDEX 01 02:16:62
  TRACK 86 AUDIO
    TITLE "0:"
    INDEX 01 02:20:09
  TRACK 87 AUDIO
    TITLE "12:cjc041_0645"
    INDEX 01 02:20:63
  TRACK 88 AUDIO
    TITLE "0:"
    INDEX 01 02:23:15
  TRACK 89 AUDIO
    TITLE "13:cjc041_0646"
    INDEX 01 02:23:72
  TRACK 90 AUDIO
    TITLE "0:"
    INDEX 01 02:26:21
  TRACK 91 AUDIO
    TITLE "14:cjc041_0647"
    INDEX 01 02:26:70
  TRACK 92 AUDIO
    TITLE "0:"
    INDEX 01 02:30:15
  TRACK 93 AUDIO
    TITLE "12:cjc041_0648"
    INDEX 01 02:30:74
  TRACK 94 AUDIO
    TITLE "0:"
    INDEX 01 02:32:41
  TRACK 95 AUDIO
    TITLE "13:cjc041_0649"
    INDEX 01 02:33:27
  TRACK 96 AUDIO
    TITLE "0:"
    INDEX 01 02:35:02
  TRACK 97 AUDIO
    TITLE "14:cjc041_0650"
    INDEX 01 02:35:59
  TRACK 98 AUDIO
    TITLE "0:"
    INDEX 01 02:40:66
